STARTFONT 2.1
FONT -FontForge-PixiFont-Book-R-Normal--16-720-16-16-P-67-ISO10646-1
SIZE 72 16 16
FONTBOUNDINGBOX 11 15 0 -2
COMMENT "Generated by fontforge, http://fontforge.sourceforge.net"
COMMENT "Copyright Kiwian 2020"
STARTPROPERTIES 39
FOUNDRY "FontForge"
FAMILY_NAME "PixiFont"
WEIGHT_NAME "Book"
SLANT "R"
SETWIDTH_NAME "Normal"
ADD_STYLE_NAME ""
PIXEL_SIZE 16
POINT_SIZE 720
RESOLUTION_X 16
RESOLUTION_Y 16
SPACING "P"
AVERAGE_WIDTH 67
CHARSET_REGISTRY "ISO10646"
CHARSET_ENCODING "1"
FONTNAME_REGISTRY ""
CHARSET_COLLECTIONS "ISO10646-1"
FONT_NAME "PixiFont"
FACE_NAME "PixiFont Regular"
COPYRIGHT "Copyright Kiwian 2020"
FONT_VERSION "1.0"
FONT_ASCENT 13
FONT_DESCENT 3
UNDERLINE_POSITION 0
UNDERLINE_THICKNESS 0
X_HEIGHT 7
CAP_HEIGHT 11
RAW_ASCENT 812
RAW_DESCENT 187
NORM_SPACE 4
RELATIVE_WEIGHT 40
RELATIVE_SETWIDTH 50
SUPERSCRIPT_X 0
SUPERSCRIPT_Y 8
SUPERSCRIPT_SIZE 8
SUBSCRIPT_X 0
SUBSCRIPT_Y -1
SUBSCRIPT_SIZE 8
AVG_LOWERCASE_WIDTH 67
AVG_UPPERCASE_WIDTH 83
ENDPROPERTIES
CHARS 99
STARTCHAR space
ENCODING 32
SWIDTH 250 0
DWIDTH 4 0
BBX 1 1 0 0
BITMAP
00
ENDCHAR
STARTCHAR exclam
ENCODING 33
SWIDTH 156 0
DWIDTH 2 0
BBX 1 12 1 0
BITMAP
80
80
80
80
80
80
80
80
80
00
80
80
ENDCHAR
STARTCHAR quotedbl
ENCODING 34
SWIDTH 343 0
DWIDTH 6 0
BBX 4 3 1 9
BITMAP
90
90
90
ENDCHAR
STARTCHAR numbersign
ENCODING 35
SWIDTH 531 0
DWIDTH 8 0
BBX 7 8 1 0
BITMAP
6C
6C
FE
6C
6C
FE
6C
7C
ENDCHAR
STARTCHAR dollar
ENCODING 36
SWIDTH 531 0
DWIDTH 8 0
BBX 8 12 0 0
BITMAP
08
08
3F
48
48
48
3E
09
09
FC
08
08
ENDCHAR
STARTCHAR percent
ENCODING 37
SWIDTH 437 0
DWIDTH 7 0
BBX 6 12 1 0
BITMAP
8C
8C
0C
10
10
10
60
60
60
80
8C
8C
ENDCHAR
STARTCHAR ampersand
ENCODING 38
SWIDTH 531 0
DWIDTH 8 0
BBX 7 12 1 0
BITMAP
7C
7C
82
80
60
60
60
92
92
8C
72
72
ENDCHAR
STARTCHAR quotesingle
ENCODING 39
SWIDTH 156 0
DWIDTH 2 0
BBX 1 3 1 9
BITMAP
80
80
80
ENDCHAR
STARTCHAR parenleft
ENCODING 40
SWIDTH 250 0
DWIDTH 4 0
BBX 3 12 1 0
BITMAP
60
60
60
80
80
80
80
80
80
60
60
60
ENDCHAR
STARTCHAR parenright
ENCODING 41
SWIDTH 250 0
DWIDTH 4 0
BBX 3 12 1 0
BITMAP
80
80
80
60
60
60
60
60
60
80
80
80
ENDCHAR
STARTCHAR asterisk
ENCODING 42
SWIDTH 437 0
DWIDTH 7 0
BBX 4 6 2 6
BITMAP
60
60
F0
60
90
90
ENDCHAR
STARTCHAR plus
ENCODING 43
SWIDTH 625 0
DWIDTH 10 0
BBX 7 7 1 3
BITMAP
08
08
FE
FE
08
08
08
ENDCHAR
STARTCHAR comma
ENCODING 44
SWIDTH 156 0
DWIDTH 2 0
BBX 3 4 0 -2
BITMAP
60
60
60
80
ENDCHAR
STARTCHAR hyphen
ENCODING 45
SWIDTH 531 0
DWIDTH 8 0
BBX 6 2 1 6
BITMAP
FC
FC
ENDCHAR
STARTCHAR period
ENCODING 46
SWIDTH 156 0
DWIDTH 2 0
BBX 1 2 1 0
BITMAP
80
80
ENDCHAR
STARTCHAR slash
ENCODING 47
SWIDTH 437 0
DWIDTH 7 0
BBX 6 12 1 0
BITMAP
0C
0C
0C
10
10
10
60
60
60
80
80
80
ENDCHAR
STARTCHAR zero
ENCODING 48
SWIDTH 437 0
DWIDTH 7 0
BBX 7 12 0 0
BITMAP
38
38
E6
46
46
46
46
46
46
5C
38
38
ENDCHAR
STARTCHAR one
ENCODING 49
SWIDTH 343 0
DWIDTH 6 0
BBX 5 12 0 0
BITMAP
30
30
E0
30
30
30
30
30
30
30
78
78
ENDCHAR
STARTCHAR two
ENCODING 50
SWIDTH 437 0
DWIDTH 7 0
BBX 7 12 0 0
BITMAP
38
38
46
06
08
08
30
30
30
40
FC
FC
ENDCHAR
STARTCHAR three
ENCODING 51
SWIDTH 437 0
DWIDTH 7 0
BBX 6 12 1 0
BITMAP
70
70
8C
0C
0C
0C
70
0C
0C
8C
70
70
ENDCHAR
STARTCHAR four
ENCODING 52
SWIDTH 531 0
DWIDTH 8 0
BBX 7 12 1 0
BITMAP
38
38
6C
8C
FE
FE
0C
0C
0C
0C
0C
0C
ENDCHAR
STARTCHAR five
ENCODING 53
SWIDTH 437 0
DWIDTH 7 0
BBX 7 12 0 0
BITMAP
FC
FC
40
40
38
38
06
06
06
46
38
38
ENDCHAR
STARTCHAR six
ENCODING 54
SWIDTH 437 0
DWIDTH 7 0
BBX 6 12 1 0
BITMAP
70
70
80
80
F0
F0
8C
8C
8C
8C
70
70
ENDCHAR
STARTCHAR seven
ENCODING 55
SWIDTH 437 0
DWIDTH 7 0
BBX 7 12 0 0
BITMAP
FC
FC
06
06
08
08
08
08
08
30
30
30
ENDCHAR
STARTCHAR eight
ENCODING 56
SWIDTH 437 0
DWIDTH 7 0
BBX 6 12 1 0
BITMAP
70
70
8C
8C
8C
8C
70
8C
8C
8C
70
70
ENDCHAR
STARTCHAR nine
ENCODING 57
SWIDTH 437 0
DWIDTH 7 0
BBX 6 12 1 0
BITMAP
70
70
8C
8C
8C
8C
7C
0C
0C
8C
70
70
ENDCHAR
STARTCHAR colon
ENCODING 58
SWIDTH 156 0
DWIDTH 2 0
BBX 1 6 1 3
BITMAP
80
00
00
00
80
80
ENDCHAR
STARTCHAR semicolon
ENCODING 59
SWIDTH 156 0
DWIDTH 2 0
BBX 3 9 0 0
BITMAP
60
00
00
00
60
60
60
80
80
ENDCHAR
STARTCHAR less
ENCODING 60
SWIDTH 531 0
DWIDTH 8 0
BBX 7 7 1 2
BITMAP
0E
70
70
80
70
70
0E
ENDCHAR
STARTCHAR equal
ENCODING 61
SWIDTH 437 0
DWIDTH 7 0
BBX 6 5 0 3
BITMAP
FC
FC
00
FC
FC
ENDCHAR
STARTCHAR greater
ENCODING 62
SWIDTH 531 0
DWIDTH 8 0
BBX 8 7 0 2
BITMAP
E0
1C
1C
01
1C
1C
E0
ENDCHAR
STARTCHAR question
ENCODING 63
SWIDTH 437 0
DWIDTH 7 0
BBX 6 12 1 0
BITMAP
70
70
8C
0C
10
10
60
60
60
00
60
60
ENDCHAR
STARTCHAR at
ENCODING 64
SWIDTH 531 0
DWIDTH 8 0
BBX 7 12 1 0
BITMAP
7C
7C
82
9E
92
92
90
B8
B8
82
7C
7C
ENDCHAR
STARTCHAR A
ENCODING 65
SWIDTH 625 0
DWIDTH 10 0
BBX 8 12 1 0
BITMAP
38
38
38
62
62
62
7E
81
81
81
81
81
ENDCHAR
STARTCHAR B
ENCODING 66
SWIDTH 531 0
DWIDTH 8 0
BBX 8 12 0 0
BITMAP
FC
FC
41
41
41
41
FC
41
41
41
FC
FC
ENDCHAR
STARTCHAR C
ENCODING 67
SWIDTH 531 0
DWIDTH 8 0
BBX 7 12 1 0
BITMAP
7E
7E
80
80
80
80
80
80
80
80
7E
7E
ENDCHAR
STARTCHAR D
ENCODING 68
SWIDTH 531 0
DWIDTH 8 0
BBX 7 12 1 0
BITMAP
F0
F0
8C
82
82
82
82
82
82
8C
F0
F0
ENDCHAR
STARTCHAR E
ENCODING 69
SWIDTH 531 0
DWIDTH 8 0
BBX 8 12 0 0
BITMAP
7F
7F
40
40
FC
FC
40
40
40
40
7F
7F
ENDCHAR
STARTCHAR F
ENCODING 70
SWIDTH 531 0
DWIDTH 8 0
BBX 7 12 1 0
BITMAP
FE
FE
80
80
F0
F0
80
80
80
80
80
80
ENDCHAR
STARTCHAR G
ENCODING 71
SWIDTH 531 0
DWIDTH 8 0
BBX 7 12 1 0
BITMAP
7C
7C
80
80
80
80
9E
82
82
82
7C
7C
ENDCHAR
STARTCHAR H
ENCODING 72
SWIDTH 531 0
DWIDTH 8 0
BBX 7 12 1 0
BITMAP
82
82
82
82
FE
FE
82
82
82
82
82
82
ENDCHAR
STARTCHAR I
ENCODING 73
SWIDTH 531 0
DWIDTH 8 0
BBX 7 12 1 0
BITMAP
FE
FE
10
10
10
10
10
10
10
10
FE
FE
ENDCHAR
STARTCHAR J
ENCODING 74
SWIDTH 531 0
DWIDTH 8 0
BBX 7 12 1 0
BITMAP
02
02
02
02
02
02
02
82
82
82
7C
7C
ENDCHAR
STARTCHAR K
ENCODING 75
SWIDTH 531 0
DWIDTH 8 0
BBX 7 12 1 0
BITMAP
82
82
82
8C
F0
F0
8C
82
82
82
82
82
ENDCHAR
STARTCHAR L
ENCODING 76
SWIDTH 531 0
DWIDTH 8 0
BBX 7 12 1 0
BITMAP
80
80
80
80
80
80
80
80
80
80
FE
FE
ENDCHAR
STARTCHAR M
ENCODING 77
SWIDTH 718 0
DWIDTH 12 0
BBX 11 12 0 0
BITMAP
4060
4060
E0E0
E0E0
4960
4960
4960
4660
4660
4660
4060
4060
ENDCHAR
STARTCHAR N
ENCODING 78
SWIDTH 531 0
DWIDTH 8 0
BBX 8 12 0 0
BITMAP
41
41
E1
E1
49
49
49
47
47
47
41
41
ENDCHAR
STARTCHAR O
ENCODING 79
SWIDTH 531 0
DWIDTH 8 0
BBX 7 12 1 0
BITMAP
7C
7C
82
82
82
82
82
82
82
82
7C
7C
ENDCHAR
STARTCHAR P
ENCODING 80
SWIDTH 531 0
DWIDTH 8 0
BBX 8 12 0 0
BITMAP
FC
FC
41
41
FC
FC
40
40
40
40
40
40
ENDCHAR
STARTCHAR Q
ENCODING 81
SWIDTH 531 0
DWIDTH 8 0
BBX 7 12 1 0
BITMAP
7C
7C
82
82
82
82
82
92
92
8C
72
72
ENDCHAR
STARTCHAR R
ENCODING 82
SWIDTH 531 0
DWIDTH 8 0
BBX 8 12 0 0
BITMAP
FC
FC
41
41
FC
FC
48
46
46
41
41
41
ENDCHAR
STARTCHAR S
ENCODING 83
SWIDTH 531 0
DWIDTH 8 0
BBX 7 12 1 0
BITMAP
7C
7C
82
80
7C
7C
02
02
02
82
7C
7C
ENDCHAR
STARTCHAR T
ENCODING 84
SWIDTH 531 0
DWIDTH 8 0
BBX 7 12 1 0
BITMAP
FE
FE
10
10
10
10
10
10
10
10
10
10
ENDCHAR
STARTCHAR U
ENCODING 85
SWIDTH 531 0
DWIDTH 8 0
BBX 7 12 1 0
BITMAP
82
82
82
82
82
82
82
82
82
82
7C
7C
ENDCHAR
STARTCHAR V
ENCODING 86
SWIDTH 625 0
DWIDTH 10 0
BBX 8 12 1 0
BITMAP
81
81
81
81
62
62
62
62
62
38
38
38
ENDCHAR
STARTCHAR W
ENCODING 87
SWIDTH 531 0
DWIDTH 8 0
BBX 7 12 1 0
BITMAP
82
82
82
82
92
92
92
6C
6C
6C
6C
6C
ENDCHAR
STARTCHAR X
ENCODING 88
SWIDTH 531 0
DWIDTH 8 0
BBX 7 12 1 0
BITMAP
82
82
82
6C
10
10
6C
6C
6C
82
82
82
ENDCHAR
STARTCHAR Y
ENCODING 89
SWIDTH 531 0
DWIDTH 8 0
BBX 7 12 1 0
BITMAP
82
82
82
6C
6C
6C
10
10
10
10
10
10
ENDCHAR
STARTCHAR Z
ENCODING 90
SWIDTH 531 0
DWIDTH 8 0
BBX 7 12 1 0
BITMAP
FE
FE
02
0C
0C
0C
10
60
60
80
FE
FE
ENDCHAR
STARTCHAR bracketleft
ENCODING 91
SWIDTH 343 0
DWIDTH 6 0
BBX 4 12 1 0
BITMAP
F0
F0
80
80
80
80
80
80
80
80
F0
F0
ENDCHAR
STARTCHAR backslash
ENCODING 92
SWIDTH 437 0
DWIDTH 7 0
BBX 6 12 1 0
BITMAP
80
80
80
60
60
60
10
10
10
0C
0C
0C
ENDCHAR
STARTCHAR bracketright
ENCODING 93
SWIDTH 343 0
DWIDTH 6 0
BBX 4 12 1 0
BITMAP
F0
F0
10
10
10
10
10
10
10
10
F0
F0
ENDCHAR
STARTCHAR asciicircum
ENCODING 94
SWIDTH 531 0
DWIDTH 8 0
BBX 7 6 1 6
BITMAP
10
10
6C
6C
82
82
ENDCHAR
STARTCHAR underscore
ENCODING 95
SWIDTH 531 0
DWIDTH 8 0
BBX 7 2 1 0
BITMAP
FE
FE
ENDCHAR
STARTCHAR grave
ENCODING 96
SWIDTH 250 0
DWIDTH 4 0
BBX 3 4 1 8
BITMAP
80
80
80
60
ENDCHAR
STARTCHAR a
ENCODING 97
SWIDTH 531 0
DWIDTH 8 0
BBX 7 9 1 0
BITMAP
70
0C
0C
7C
8C
8C
8C
72
72
ENDCHAR
STARTCHAR b
ENCODING 98
SWIDTH 437 0
DWIDTH 7 0
BBX 6 9 1 0
BITMAP
80
80
80
F0
8C
8C
8C
F0
F0
ENDCHAR
STARTCHAR c
ENCODING 99
SWIDTH 343 0
DWIDTH 6 0
BBX 4 8 1 0
BITMAP
70
70
80
80
80
80
70
70
ENDCHAR
STARTCHAR d
ENCODING 100
SWIDTH 437 0
DWIDTH 7 0
BBX 6 9 1 0
BITMAP
0C
0C
0C
7C
8C
8C
8C
7C
7C
ENDCHAR
STARTCHAR e
ENCODING 101
SWIDTH 437 0
DWIDTH 7 0
BBX 6 8 1 0
BITMAP
70
70
8C
F0
F0
80
7C
7C
ENDCHAR
STARTCHAR f
ENCODING 102
SWIDTH 437 0
DWIDTH 7 0
BBX 6 9 1 0
BITMAP
7C
80
80
F0
80
80
80
80
80
ENDCHAR
STARTCHAR g
ENCODING 103
SWIDTH 437 0
DWIDTH 7 0
BBX 7 9 0 -1
BITMAP
38
38
46
46
46
3E
06
FC
FC
ENDCHAR
STARTCHAR h
ENCODING 104
SWIDTH 437 0
DWIDTH 7 0
BBX 6 9 1 0
BITMAP
80
80
80
80
F0
F0
8C
8C
8C
ENDCHAR
STARTCHAR i
ENCODING 105
SWIDTH 156 0
DWIDTH 2 0
BBX 1 9 1 0
BITMAP
80
00
00
80
80
80
80
80
80
ENDCHAR
STARTCHAR j
ENCODING 106
SWIDTH 343 0
DWIDTH 6 0
BBX 4 9 1 0
BITMAP
10
00
00
10
10
10
90
F0
F0
ENDCHAR
STARTCHAR k
ENCODING 107
SWIDTH 437 0
DWIDTH 7 0
BBX 7 9 0 0
BITMAP
40
48
48
E0
48
48
46
46
46
ENDCHAR
STARTCHAR l
ENCODING 108
SWIDTH 250 0
DWIDTH 4 0
BBX 3 9 1 0
BITMAP
80
80
80
80
80
80
80
60
60
ENDCHAR
STARTCHAR m
ENCODING 109
SWIDTH 531 0
DWIDTH 8 0
BBX 7 8 1 0
BITMAP
6C
6C
92
82
82
82
82
82
ENDCHAR
STARTCHAR n
ENCODING 110
SWIDTH 437 0
DWIDTH 7 0
BBX 6 8 1 0
BITMAP
F0
F0
8C
8C
8C
8C
8C
8C
ENDCHAR
STARTCHAR o
ENCODING 111
SWIDTH 437 0
DWIDTH 7 0
BBX 6 8 1 0
BITMAP
70
70
8C
8C
8C
8C
70
70
ENDCHAR
STARTCHAR p
ENCODING 112
SWIDTH 437 0
DWIDTH 7 0
BBX 6 9 1 -1
BITMAP
70
70
8C
8C
8C
F0
80
80
80
ENDCHAR
STARTCHAR q
ENCODING 113
SWIDTH 531 0
DWIDTH 8 0
BBX 7 9 1 -1
BITMAP
70
70
8C
8C
8C
7C
0C
0E
0E
ENDCHAR
STARTCHAR r
ENCODING 114
SWIDTH 437 0
DWIDTH 7 0
BBX 6 9 0 0
BITMAP
5C
E0
E0
40
40
40
40
40
40
ENDCHAR
STARTCHAR s
ENCODING 115
SWIDTH 437 0
DWIDTH 7 0
BBX 6 8 1 0
BITMAP
7C
7C
80
70
70
0C
F0
F0
ENDCHAR
STARTCHAR t
ENCODING 116
SWIDTH 343 0
DWIDTH 6 0
BBX 4 9 1 0
BITMAP
60
F0
F0
60
60
60
60
10
10
ENDCHAR
STARTCHAR u
ENCODING 117
SWIDTH 437 0
DWIDTH 7 0
BBX 6 8 1 0
BITMAP
8C
8C
8C
8C
8C
8C
7C
7C
ENDCHAR
STARTCHAR v
ENCODING 118
SWIDTH 531 0
DWIDTH 8 0
BBX 7 8 1 0
BITMAP
82
82
82
6C
6C
6C
10
10
ENDCHAR
STARTCHAR w
ENCODING 119
SWIDTH 531 0
DWIDTH 8 0
BBX 7 8 1 0
BITMAP
82
82
92
92
92
6C
6C
6C
ENDCHAR
STARTCHAR x
ENCODING 120
SWIDTH 437 0
DWIDTH 7 0
BBX 6 8 1 0
BITMAP
8C
8C
8C
70
70
8C
8C
8C
ENDCHAR
STARTCHAR y
ENCODING 121
SWIDTH 437 0
DWIDTH 7 0
BBX 6 9 1 -1
BITMAP
8C
8C
8C
7C
7C
0C
8C
FC
70
ENDCHAR
STARTCHAR z
ENCODING 122
SWIDTH 437 0
DWIDTH 7 0
BBX 7 8 0 0
BITMAP
FC
FC
06
38
38
40
FC
FC
ENDCHAR
STARTCHAR braceleft
ENCODING 123
SWIDTH 437 0
DWIDTH 7 0
BBX 6 14 1 -1
BITMAP
38
60
60
60
60
80
80
60
60
60
60
60
7C
38
ENDCHAR
STARTCHAR bar
ENCODING 124
SWIDTH 156 0
DWIDTH 2 0
BBX 1 12 1 0
BITMAP
80
80
80
80
80
80
80
80
80
80
80
80
ENDCHAR
STARTCHAR braceright
ENCODING 125
SWIDTH 437 0
DWIDTH 7 0
BBX 7 14 0 -1
BITMAP
E0
08
08
08
08
06
06
08
08
08
08
08
E8
E0
ENDCHAR
STARTCHAR asciitilde
ENCODING 126
SWIDTH 718 0
DWIDTH 12 0
BBX 10 5 1 3
BITMAP
7000
7000
8CC0
0300
0300
ENDCHAR
STARTCHAR uni00A0
ENCODING 160
SWIDTH 250 0
DWIDTH 4 0
BBX 1 1 0 0
BITMAP
00
ENDCHAR
STARTCHAR .notdef
ENCODING -1
SWIDTH 62 0
DWIDTH 1 0
BBX 1 1 0 0
BITMAP
00
ENDCHAR
STARTCHAR glyph1
ENCODING -1
SWIDTH 62 0
DWIDTH 1 0
BBX 1 1 0 0
BITMAP
00
ENDCHAR
STARTCHAR nonmarkingreturn
ENCODING -1
SWIDTH 312 0
DWIDTH 5 0
BBX 1 1 0 0
BITMAP
00
ENDCHAR
ENDFONT
